<svg width="382" height="79" viewBox="0 0 382 79" fill="none" xmlns="http://www.w3.org/2000/svg">
<path d="M0.111506 62V3.81818H23.0661C27.4789 3.81818 31.2384 4.66098 34.3445 6.34659C37.4505 8.01326 39.8179 10.3333 41.4467 13.3068C43.0945 16.2614 43.9183 19.6705 43.9183 23.5341C43.9183 27.3977 43.085 30.8068 41.4183 33.7614C39.7517 36.7159 37.3369 39.017 34.174 40.6648C31.0301 42.3125 27.2232 43.1364 22.7536 43.1364H8.12287V33.2784H20.7649C23.1323 33.2784 25.0831 32.8712 26.6172 32.0568C28.1702 31.2235 29.3255 30.0777 30.0831 28.6193C30.8596 27.142 31.2479 25.447 31.2479 23.5341C31.2479 21.6023 30.8596 19.9167 30.0831 18.4773C29.3255 17.0189 28.1702 15.892 26.6172 15.0966C25.0642 14.2822 23.0945 13.875 20.7081 13.875H12.4126V62H0.111506ZM63.7834 3.81818V62H51.6811V3.81818H63.7834ZM85.9212 62.8239C83.1371 62.8239 80.656 62.3409 78.478 61.375C76.3 60.3902 74.5765 58.9413 73.3075 57.0284C72.0575 55.0966 71.4325 52.6913 71.4325 49.8125C71.4325 47.3883 71.8776 45.3523 72.7678 43.7045C73.6579 42.0568 74.87 40.7311 76.4041 39.7273C77.9382 38.7235 79.6806 37.9659 81.6314 37.4545C83.6011 36.9432 85.6655 36.5833 87.8246 36.375C90.3625 36.1098 92.4079 35.8636 93.9609 35.6364C95.514 35.3902 96.6409 35.0303 97.3416 34.5568C98.0424 34.0833 98.3928 33.3826 98.3928 32.4545V32.2841C98.3928 30.4848 97.8246 29.0928 96.6882 28.108C95.5708 27.1231 93.9799 26.6307 91.9155 26.6307C89.7375 26.6307 88.0045 27.1136 86.7166 28.0795C85.4287 29.0265 84.5765 30.2197 84.1598 31.6591L72.9666 30.75C73.5348 28.0985 74.6522 25.8068 76.3189 23.875C77.9856 21.9242 80.1352 20.428 82.7678 19.3864C85.4193 18.3258 88.4875 17.7955 91.9723 17.7955C94.3965 17.7955 96.7166 18.0795 98.9325 18.6477C101.167 19.2159 103.147 20.0966 104.87 21.2898C106.612 22.483 107.986 24.017 108.989 25.892C109.993 27.7481 110.495 29.9735 110.495 32.5682V62H99.0178V55.9489H98.6768C97.9761 57.3125 97.0386 58.5152 95.8643 59.5568C94.6901 60.5795 93.2791 61.3845 91.6314 61.9716C89.9837 62.5398 88.0803 62.8239 85.9212 62.8239ZM89.3871 54.4716C91.1674 54.4716 92.7393 54.1212 94.103 53.4205C95.4666 52.7008 96.5367 51.7348 97.3132 50.5227C98.0897 49.3106 98.478 47.9375 98.478 46.4034V41.7727C98.0992 42.0189 97.5784 42.2462 96.9155 42.4545C96.2715 42.6439 95.5424 42.8239 94.728 42.9943C93.9136 43.1458 93.0992 43.2879 92.2848 43.4205C91.4704 43.5341 90.7318 43.6383 90.0689 43.733C88.6484 43.9413 87.4079 44.2727 86.3473 44.7273C85.2867 45.1818 84.4628 45.7973 83.8757 46.5739C83.2886 47.3314 82.995 48.2784 82.995 49.4148C82.995 51.0625 83.5916 52.322 84.7848 53.1932C85.9969 54.0455 87.531 54.4716 89.3871 54.4716ZM131.987 36.7727V62H119.884V18.3636H131.418V26.0625H131.93C132.896 23.5246 134.515 21.517 136.788 20.0398C139.06 18.5436 141.816 17.7955 145.055 17.7955C148.085 17.7955 150.727 18.4583 152.981 19.7841C155.235 21.1098 156.987 23.0038 158.237 25.4659C159.487 27.9091 160.112 30.8258 160.112 34.2159V62H148.009V36.375C148.028 33.7045 147.346 31.6212 145.964 30.125C144.581 28.6098 142.678 27.8523 140.254 27.8523C138.625 27.8523 137.185 28.2027 135.935 28.9034C134.704 29.6042 133.738 30.6269 133.038 31.9716C132.356 33.2973 132.005 34.8977 131.987 36.7727ZM169.877 62V3.81818H208.4V13.9602H182.178V27.8239H205.843V37.9659H182.178V62H169.877ZM216.447 62V18.3636H228.549V62H216.447ZM222.526 12.7386C220.727 12.7386 219.183 12.142 217.896 10.9489C216.627 9.73674 215.992 8.28788 215.992 6.60227C215.992 4.9356 216.627 3.50568 217.896 2.3125C219.183 1.10038 220.727 0.494315 222.526 0.494315C224.326 0.494315 225.86 1.10038 227.129 2.3125C228.416 3.50568 229.06 4.9356 229.06 6.60227C229.06 8.28788 228.416 9.73674 227.129 10.9489C225.86 12.142 224.326 12.7386 222.526 12.7386ZM250.346 36.7727V62H238.244V18.3636H249.778V26.0625H250.289C251.255 23.5246 252.874 21.517 255.147 20.0398C257.42 18.5436 260.175 17.7955 263.414 17.7955C266.444 17.7955 269.086 18.4583 271.34 19.7841C273.594 21.1098 275.346 23.0038 276.596 25.4659C277.846 27.9091 278.471 30.8258 278.471 34.2159V62H266.369V36.375C266.388 33.7045 265.706 31.6212 264.323 30.125C262.941 28.6098 261.037 27.8523 258.613 27.8523C256.984 27.8523 255.545 28.2027 254.295 28.9034C253.064 29.6042 252.098 30.6269 251.397 31.9716C250.715 33.2973 250.365 34.8977 250.346 36.7727ZM288.009 62V18.3636H300.112V62H288.009ZM294.089 12.7386C292.29 12.7386 290.746 12.142 289.458 10.9489C288.189 9.73674 287.555 8.28788 287.555 6.60227C287.555 4.9356 288.189 3.50568 289.458 2.3125C290.746 1.10038 292.29 0.494315 294.089 0.494315C295.888 0.494315 297.422 1.10038 298.691 2.3125C299.979 3.50568 300.623 4.9356 300.623 6.60227C300.623 8.28788 299.979 9.73674 298.691 10.9489C297.422 12.142 295.888 12.7386 294.089 12.7386ZM333.016 18.3636V27.4545H306.738V18.3636H333.016ZM312.704 7.90909H324.806V48.5909C324.806 49.7083 324.977 50.5795 325.317 51.2045C325.658 51.8106 326.132 52.2367 326.738 52.483C327.363 52.7292 328.083 52.8523 328.897 52.8523C329.465 52.8523 330.033 52.8049 330.602 52.7102C331.17 52.5966 331.605 52.5114 331.908 52.4545L333.812 61.4602C333.206 61.6496 332.353 61.8674 331.255 62.1136C330.156 62.3788 328.821 62.5398 327.249 62.5966C324.333 62.7102 321.776 62.322 319.579 61.4318C317.401 60.5417 315.706 59.1591 314.494 57.2841C313.281 55.4091 312.685 53.0417 312.704 50.1818V7.90909ZM348.371 78.3636C346.837 78.3636 345.398 78.2405 344.053 77.9943C342.728 77.767 341.629 77.4735 340.758 77.1136L343.485 68.0795C344.906 68.5152 346.184 68.7519 347.32 68.7898C348.476 68.8277 349.47 68.5625 350.303 67.9943C351.156 67.4261 351.847 66.4602 352.377 65.0966L353.087 63.25L337.434 18.3636H350.161L359.195 50.4091H359.65L368.769 18.3636H381.582L364.621 66.7159C363.807 69.0644 362.699 71.1098 361.298 72.8523C359.915 74.6136 358.163 75.9678 356.042 76.9148C353.921 77.8807 351.364 78.3636 348.371 78.3636Z" fill="white"/>
</svg>
