<svg width="50" height="50" viewBox="0 0 50 50" fill="none" xmlns="http://www.w3.org/2000/svg">
<path fill-rule="evenodd" clip-rule="evenodd" d="M25.0003 4.16667C13.4941 4.16667 4.16699 13.4938 4.16699 25C4.16699 36.5063 13.4941 45.8333 25.0003 45.8333C36.5066 45.8333 45.8337 36.5063 45.8337 25C45.8337 13.4938 36.5066 4.16667 25.0003 4.16667ZM17.7087 19.7917C17.7087 18.8341 17.8973 17.8859 18.2637 17.0013C18.6301 16.1166 19.1672 15.3128 19.8443 14.6357C20.5214 13.9586 21.3253 13.4215 22.2099 13.055C23.0946 12.6886 24.0428 12.5 25.0003 12.5C25.9579 12.5 26.9061 12.6886 27.7907 13.055C28.6754 13.4215 29.4792 13.9586 30.1563 14.6357C30.8334 15.3128 31.3705 16.1166 31.7369 17.0013C32.1034 17.8859 32.292 18.8341 32.292 19.7917C32.292 21.7255 31.5238 23.5802 30.1563 24.9477C28.7889 26.3151 26.9342 27.0833 25.0003 27.0833C23.0665 27.0833 21.2118 26.3151 19.8443 24.9477C18.4769 23.5802 17.7087 21.7255 17.7087 19.7917ZM38.0378 35.3833C36.4783 37.3451 34.4957 38.9291 32.2382 40.0171C29.9806 41.1051 27.5064 41.669 25.0003 41.6667C22.4943 41.669 20.02 41.1051 17.7625 40.0171C15.5049 38.9291 13.5223 37.3451 11.9628 35.3833C15.3399 32.9604 19.9482 31.25 25.0003 31.25C30.0524 31.25 34.6607 32.9604 38.0378 35.3833Z" fill="#828282"/>
</svg>
