<?xml version="1.0" encoding="UTF-8"?>
<svg id="_레이어_2" data-name="레이어 2" xmlns="http://www.w3.org/2000/svg" viewBox="0 0 297.52 133.39">
  <defs>
    <style>
      .cls-1 {
        fill: #569fbc;
      }

      .cls-2, .cls-3 {
        stroke-width: 11px;
      }

      .cls-2, .cls-3, .cls-4 {
        fill: none;
        stroke-miterlimit: 10;
      }

      .cls-2, .cls-4 {
        stroke: #569fbc;
      }

      .cls-3 {
        stroke: #000;
      }

      .cls-4 {
        stroke-width: 8px;
      }
    </style>
  </defs>
  <g id="_레이어_2-2" data-name="레이어 2">
    <g>
      <polyline class="cls-3" points="46.62 5.58 8.22 98.57 94.81 98.57"/>
      <line class="cls-3" x1="73.35" y1="55.28" x2="73.35" y2="127.94"/>
    </g>
    <path class="cls-2" d="m149.45,5.54s38.4-2.64,38.4,36.89v47.44s.19,38.02-38.4,38.02-39.15-36.33-39.15-36.33v-47.62s.19-38.4,39.15-38.4Z"/>
    <g>
      <polyline class="cls-3" points="249.33 5.57 210.93 98.55 297.52 98.55"/>
      <line class="cls-3" x1="276.06" y1="55.26" x2="276.06" y2="127.92"/>
    </g>
    <line class="cls-4" x1="130.62" y1="46.2" x2="130.62" y2="64.08"/>
    <line class="cls-4" x1="168.65" y1="46.2" x2="168.65" y2="64.08"/>
    <path class="cls-1" d="m128.5,88.03c2.36,2.54,5.39,4.67,8.42,6.3,6.19,3.33,13.42,4.67,20.25,2.59,5.28-1.61,9.82-4.93,13.6-8.89,2.67-2.79-1.57-7.04-4.24-4.24-2.82,2.95-6.28,5.7-9.97,7.02-.79.28-1.6.52-2.43.71-.42.1-.85.18-1.27.25-.06.01-.59.08-.14.03-.26.03-.52.06-.78.08-.76.06-1.52.08-2.28.06-.4-.01-.79-.03-1.18-.07-.17-.01-1.2-.15-.65-.06-1.48-.23-2.93-.59-4.34-1.08-.34-.12-.67-.24-1.01-.37-.12-.05-.25-.1-.37-.15-.43-.17.41.19,0,0-.62-.28-1.23-.57-1.83-.88-1.1-.58-2.16-1.22-3.19-1.91-.43-.29-.84-.59-1.25-.89-.6-.44.15.13-.14-.1-.18-.15-.36-.29-.54-.43-.84-.69-1.67-1.41-2.41-2.2-2.63-2.83-6.87,1.42-4.24,4.24h0Z"/>
  </g>
</svg>