<svg width="148" height="30" viewBox="0 0 148 30" fill="none" xmlns="http://www.w3.org/2000/svg">
<path d="M0.269453 23V21.83L2.00945 21.59C2.38945 21.55 2.63945 21.43 2.75945 21.23C2.87945 21.01 2.93945 20.62 2.93945 20.06V4.58C2.93945 4.08 2.86945 3.73 2.72945 3.53C2.60945 3.33 2.34945 3.21 1.94945 3.17L0.269453 2.93V1.76H7.64945C8.72945 1.76 9.69945 1.84 10.5595 2C11.4195 2.16 12.1695 2.4 12.8095 2.72C13.4695 3.04 14.0095 3.44 14.4295 3.92C14.8695 4.38 15.1895 4.93 15.3895 5.57C15.6095 6.19 15.7195 6.9 15.7195 7.7C15.7195 8.52 15.5995 9.28 15.3595 9.98C15.1395 10.66 14.8095 11.28 14.3695 11.84C13.9495 12.38 13.4295 12.84 12.8095 13.22C12.2095 13.6 11.5195 13.89 10.7395 14.09C9.97945 14.29 9.15945 14.39 8.27945 14.39C7.73945 14.39 7.24945 14.38 6.80945 14.36C6.36945 14.32 6.06945 14.28 5.90945 14.24V20.12C5.90945 20.64 5.97945 21.02 6.11945 21.26C6.27945 21.48 6.57945 21.6 7.01945 21.62L9.11945 21.83V23H0.269453ZM7.64945 13.04C9.24945 13.04 10.4595 12.6 11.2795 11.72C12.0995 10.84 12.5095 9.53 12.5095 7.79C12.5095 6.69 12.3295 5.8 11.9695 5.12C11.6095 4.42 11.0595 3.91 10.3195 3.59C9.57945 3.27 8.61945 3.11 7.43945 3.11H5.90945V12.89C6.06945 12.93 6.30945 12.97 6.62945 13.01C6.94945 13.03 7.28945 13.04 7.64945 13.04ZM17.7756 23V21.8L19.3956 21.56C19.7956 21.52 20.0456 21.4 20.1456 21.2C20.2656 20.98 20.3256 20.59 20.3256 20.03V3.38C20.3256 2.68 20.2456 2.22 20.0856 2C19.9456 1.78 19.6156 1.64 19.0956 1.58L17.7156 1.4L17.8656 0.169999L22.8156 0.019999L23.1156 0.289999V20.15C23.1156 20.57 23.1656 20.9 23.2656 21.14C23.3656 21.36 23.6356 21.5 24.0756 21.56L25.6956 21.83V23H17.7756ZM32.2373 23.42C30.9573 23.42 29.9373 23.06 29.1773 22.34C28.4173 21.6 28.0373 20.61 28.0373 19.37C28.0373 18.29 28.3073 17.42 28.8473 16.76C29.3873 16.08 30.2773 15.57 31.5173 15.23C32.7773 14.87 34.4673 14.64 36.5873 14.54V12.08C36.5873 11.26 36.4773 10.6 36.2573 10.1C36.0373 9.58 35.6973 9.2 35.2373 8.96C34.7773 8.7 34.1673 8.57 33.4073 8.57C32.8273 8.57 32.2573 8.66 31.6973 8.84C31.1373 9.02 30.7273 9.25 30.4673 9.53C30.6873 9.87 30.8673 10.16 31.0073 10.4C31.1473 10.64 31.2473 10.84 31.3073 11C31.3873 11.16 31.4273 11.3 31.4273 11.42C31.4273 11.78 31.2673 12.1 30.9473 12.38C30.6473 12.64 30.2573 12.77 29.7773 12.77C29.2373 12.77 28.8173 12.63 28.5173 12.35C28.2373 12.07 28.0973 11.68 28.0973 11.18C28.0973 10.5 28.3573 9.87 28.8773 9.29C29.4173 8.69 30.1173 8.21 30.9773 7.85C31.8373 7.49 32.7773 7.31 33.7973 7.31C35.0573 7.31 36.0973 7.51 36.9173 7.91C37.7373 8.29 38.3473 8.88 38.7473 9.68C39.1673 10.48 39.3773 11.49 39.3773 12.71V20.18C39.3773 20.64 39.4973 20.99 39.7373 21.23C39.9773 21.45 40.3073 21.56 40.7273 21.56C40.9473 21.56 41.1673 21.54 41.3873 21.5C41.6273 21.44 41.8873 21.36 42.1673 21.26L42.4373 22.16C42.0373 22.56 41.5773 22.87 41.0573 23.09C40.5573 23.31 40.0873 23.42 39.6473 23.42C38.7673 23.42 38.0973 23.19 37.6373 22.73C37.1773 22.27 36.8973 21.59 36.7973 20.69C36.4373 21.31 36.0273 21.83 35.5673 22.25C35.1273 22.65 34.6273 22.94 34.0673 23.12C33.5273 23.32 32.9173 23.42 32.2373 23.42ZM33.4073 21.59C34.0073 21.59 34.5473 21.45 35.0273 21.17C35.5073 20.87 35.8873 20.48 36.1673 20C36.4473 19.52 36.5873 18.97 36.5873 18.35V15.8C35.2873 15.82 34.2173 15.94 33.3773 16.16C32.5373 16.38 31.9173 16.73 31.5173 17.21C31.1373 17.67 30.9473 18.28 30.9473 19.04C30.9473 19.84 31.1673 20.47 31.6073 20.93C32.0473 21.37 32.6473 21.59 33.4073 21.59ZM43.8276 23V21.86L45.2676 21.62C45.5876 21.56 45.7976 21.44 45.8976 21.26C45.9976 21.06 46.0476 20.7 46.0476 20.18V11.06C46.0476 10.34 45.9876 9.87 45.8676 9.65C45.7476 9.41 45.4676 9.26 45.0276 9.2L43.5576 9.02L43.7076 7.85L48.1176 7.55L48.4176 7.73L48.5676 10.49H48.6276C49.1476 9.49 49.8776 8.71 50.8176 8.15C51.7776 7.59 52.7876 7.31 53.8476 7.31C54.8876 7.31 55.7676 7.51 56.4876 7.91C57.2076 8.29 57.7476 8.86 58.1076 9.62C58.4876 10.38 58.6776 11.32 58.6776 12.44V20.42C58.6776 20.86 58.7376 21.16 58.8576 21.32C58.9776 21.48 59.2276 21.59 59.6076 21.65L61.0176 21.86V23H53.6676V21.89L54.9876 21.68C55.3676 21.6 55.6076 21.48 55.7076 21.32C55.8276 21.16 55.8876 20.86 55.8876 20.42V13.07C55.8876 12.13 55.7976 11.38 55.6176 10.82C55.4376 10.26 55.1276 9.86 54.6876 9.62C54.2476 9.36 53.6576 9.23 52.9176 9.23C52.0976 9.23 51.3776 9.4 50.7576 9.74C50.1576 10.08 49.6876 10.57 49.3476 11.21C49.0076 11.83 48.8376 12.56 48.8376 13.4V20.3C48.8376 20.74 48.8876 21.05 48.9876 21.23C49.0876 21.41 49.2876 21.53 49.5876 21.59L51.1776 21.89V23H43.8276ZM63.7558 23V21.83L65.4958 21.59C65.8758 21.55 66.1258 21.43 66.2458 21.23C66.3658 21.01 66.4258 20.62 66.4258 20.06V4.58C66.4258 4.06 66.3558 3.71 66.2158 3.53C66.0958 3.33 65.8358 3.21 65.4358 3.17L63.7558 2.93V1.76H77.7958L78.8158 7.01L77.5558 7.46C77.2158 6.54 76.8858 5.79 76.5658 5.21C76.2658 4.63 75.9358 4.19 75.5758 3.89C75.2158 3.59 74.7858 3.39 74.2858 3.29C73.7858 3.17 73.1758 3.11 72.4558 3.11H69.3958V11.93H72.0058C72.7458 11.93 73.2858 11.88 73.6258 11.78C73.9658 11.68 74.2158 11.45 74.3758 11.09C74.5358 10.73 74.6958 10.16 74.8558 9.38L75.9958 9.23V16.34L74.8558 16.55C74.7158 15.59 74.5558 14.9 74.3758 14.48C74.2158 14.04 73.9558 13.76 73.5958 13.64C73.2358 13.5 72.6958 13.43 71.9758 13.43H69.3958V20.12C69.3958 20.64 69.4658 21.02 69.6058 21.26C69.7658 21.48 70.0658 21.6 70.5058 21.62L72.6658 21.83V23H63.7558ZM81.202 23V21.8L82.882 21.56C83.262 21.5 83.502 21.37 83.602 21.17C83.722 20.97 83.782 20.6 83.782 20.06V11.15C83.782 10.43 83.712 9.95 83.572 9.71C83.452 9.47 83.162 9.32 82.702 9.26L81.262 9.08L81.412 7.88L86.242 7.64L86.572 7.79V20.18C86.572 20.58 86.622 20.89 86.722 21.11C86.822 21.33 87.072 21.48 87.472 21.56L89.152 21.83V23H81.202ZM84.742 4.37C84.162 4.37 83.682 4.19 83.302 3.83C82.922 3.47 82.732 3 82.732 2.42C82.732 1.84 82.922 1.37 83.302 1.01C83.682 0.629999 84.162 0.439999 84.742 0.439999C85.342 0.439999 85.822 0.619999 86.182 0.979999C86.562 1.34 86.752 1.81 86.752 2.39C86.752 2.97 86.562 3.45 86.182 3.83C85.822 4.19 85.342 4.37 84.742 4.37ZM91.4936 23V21.86L92.9336 21.62C93.2536 21.56 93.4636 21.44 93.5636 21.26C93.6636 21.06 93.7136 20.7 93.7136 20.18V11.06C93.7136 10.34 93.6536 9.87 93.5336 9.65C93.4136 9.41 93.1336 9.26 92.6936 9.2L91.2236 9.02L91.3736 7.85L95.7836 7.55L96.0836 7.73L96.2336 10.49H96.2936C96.8136 9.49 97.5436 8.71 98.4836 8.15C99.4436 7.59 100.454 7.31 101.514 7.31C102.554 7.31 103.434 7.51 104.154 7.91C104.874 8.29 105.414 8.86 105.774 9.62C106.154 10.38 106.344 11.32 106.344 12.44V20.42C106.344 20.86 106.404 21.16 106.524 21.32C106.644 21.48 106.894 21.59 107.274 21.65L108.684 21.86V23H101.334V21.89L102.654 21.68C103.034 21.6 103.274 21.48 103.374 21.32C103.494 21.16 103.554 20.86 103.554 20.42V13.07C103.554 12.13 103.464 11.38 103.284 10.82C103.104 10.26 102.794 9.86 102.354 9.62C101.914 9.36 101.324 9.23 100.584 9.23C99.7636 9.23 99.0436 9.4 98.4236 9.74C97.8236 10.08 97.3536 10.57 97.0136 11.21C96.6736 11.83 96.5036 12.56 96.5036 13.4V20.3C96.5036 20.74 96.5536 21.05 96.6536 21.23C96.7536 21.41 96.9536 21.53 97.2536 21.59L98.8436 21.89V23H91.4936ZM110.792 23V21.8L112.472 21.56C112.852 21.5 113.092 21.37 113.192 21.17C113.312 20.97 113.372 20.6 113.372 20.06V11.15C113.372 10.43 113.302 9.95 113.162 9.71C113.042 9.47 112.752 9.32 112.292 9.26L110.852 9.08L111.002 7.88L115.832 7.64L116.162 7.79V20.18C116.162 20.58 116.212 20.89 116.312 21.11C116.412 21.33 116.662 21.48 117.062 21.56L118.742 21.83V23H110.792ZM114.332 4.37C113.752 4.37 113.272 4.19 112.892 3.83C112.512 3.47 112.322 3 112.322 2.42C112.322 1.84 112.512 1.37 112.892 1.01C113.272 0.629999 113.752 0.439999 114.332 0.439999C114.932 0.439999 115.412 0.619999 115.772 0.979999C116.152 1.34 116.342 1.81 116.342 2.39C116.342 2.97 116.152 3.45 115.772 3.83C115.412 4.19 114.932 4.37 114.332 4.37ZM126.052 23.42C125.192 23.42 124.472 23.27 123.892 22.97C123.312 22.65 122.872 22.16 122.572 21.5C122.292 20.84 122.152 20 122.152 18.98V9.29H119.842V8.03C120.562 7.97 121.142 7.77 121.582 7.43C122.042 7.07 122.402 6.52 122.662 5.78C122.922 5.04 123.092 4.07 123.172 2.87L124.612 2.69L124.942 2.87V7.73H129.562V9.29H124.942V18.77C124.942 19.63 125.112 20.28 125.452 20.72C125.792 21.14 126.322 21.35 127.042 21.35C127.562 21.35 128.062 21.26 128.542 21.08C129.022 20.9 129.482 20.64 129.922 20.3L130.522 21.14C129.902 21.88 129.212 22.45 128.452 22.85C127.712 23.23 126.912 23.42 126.052 23.42ZM133.838 29.9C132.918 29.9 132.188 29.68 131.648 29.24C131.108 28.82 130.838 28.25 130.838 27.53C130.838 26.97 131.008 26.5 131.348 26.12C131.708 25.76 132.168 25.58 132.728 25.58C133.188 25.58 133.558 25.68 133.838 25.88C134.118 26.1 134.278 26.39 134.318 26.75C134.338 26.89 134.328 27.1 134.288 27.38C134.268 27.66 134.218 28.04 134.138 28.52C134.558 28.54 134.948 28.45 135.308 28.25C135.668 28.07 136.038 27.69 136.418 27.11C136.798 26.55 137.218 25.72 137.678 24.62L138.368 23.03L133.208 10.7C132.968 10.1 132.768 9.72 132.608 9.56C132.448 9.38 132.218 9.25 131.918 9.17L130.868 8.93L131.108 7.73H138.248V8.87L136.808 9.05C136.428 9.09 136.178 9.22 136.058 9.44C135.958 9.64 136.018 10.01 136.238 10.55L139.778 19.46H139.898L143.378 10.73C143.578 10.25 143.618 9.89 143.498 9.65C143.398 9.39 143.128 9.21 142.688 9.11L141.428 8.84L141.668 7.73H147.548V8.87L146.468 9.11C146.148 9.19 145.898 9.32 145.718 9.5C145.558 9.68 145.338 10.08 145.058 10.7L139.358 24.53C138.938 25.57 138.518 26.44 138.098 27.14C137.698 27.84 137.278 28.39 136.838 28.79C136.418 29.19 135.958 29.47 135.458 29.63C134.978 29.81 134.438 29.9 133.838 29.9Z" fill="black"/>
</svg>
